# xmcd
#
# Track frame offsets: 
#        150
#        14842
#        29575
#        43474
#        54913
#        69193
#        81702
#        94044
#        110884
#        119644
#        133988
#        147336
#        165575
#
# Disc length: 2342 seconds
#
# Revision: 0
# Processed by: cddbd v1.5.2PL0 Copyright (c) Steve Scherf et al.
# Submitted via: ExactAudioCopyFreeDBPlugin 1.0
#
DISCID=cb09240d
DTITLE=Lucky 5 - Broken Arrow
DYEAR=2008
DGENRE=Blues
TTITLE0=Broken Arrow
TTITLE1=This Road
TTITLE2=Deal With The Devil
TTITLE3=Wolf Song
TTITLE4=Lying To You
TTITLE5=Big Fat Mama
TTITLE6=Too Hot
TTITLE7=Try Again
TTITLE8=Little Rebel
TTITLE9=On My Backyard
TTITLE10=See That Girl
TTITLE11=I've Been Gone
TTITLE12=Crazy 'Bout Your Loving
EXTD=
EXTT0=
EXTT1=
EXTT2=
EXTT3=
EXTT4=
EXTT5=
EXTT6=
EXTT7=
EXTT8=
EXTT9=
EXTT10=
EXTT11=
EXTT12=
PLAYORDER=
